<?xml version="1.0" encoding="UTF-8" standalone="no"?>
<svg
   xmlns:dc="http://purl.org/dc/elements/1.1/"
   xmlns:cc="http://creativecommons.org/ns#"
   xmlns:rdf="http://www.w3.org/1999/02/22-rdf-syntax-ns#"
   xmlns:svg="http://www.w3.org/2000/svg"
   xmlns="http://www.w3.org/2000/svg"
   xmlns:sodipodi="http://sodipodi.sourceforge.net/DTD/sodipodi-0.dtd"
   xmlns:inkscape="http://www.inkscape.org/namespaces/inkscape"
   width="85"
   height="20"
   viewBox="0 0 85 20"
   fill="none"
   version="1.1"
   id="svg83"
   sodipodi:docname="v1-na.svg"
   inkscape:version="0.92.5 (2060ec1f9f, 2020-04-08)">
  <metadata
     id="metadata87">
    <rdf:RDF>
      <cc:Work
         rdf:about="">
        <dc:format>image/svg+xml</dc:format>
        <dc:type
           rdf:resource="http://purl.org/dc/dcmitype/StillImage" />
      </cc:Work>
    </rdf:RDF>
  </metadata>
  <sodipodi:namedview
     pagecolor="#ffffff"
     bordercolor="#666666"
     borderopacity="1"
     objecttolerance="10"
     gridtolerance="10"
     guidetolerance="10"
     inkscape:pageopacity="0"
     inkscape:pageshadow="2"
     inkscape:window-width="1920"
     inkscape:window-height="1015"
     id="namedview85"
     showgrid="false"
     inkscape:zoom="5.3906493"
     inkscape:cx="-13.309981"
     inkscape:cy="2.1828539"
     inkscape:window-x="0"
     inkscape:window-y="0"
     inkscape:window-maximized="1"
     inkscape:current-layer="svg83" />
  <path
     d="M0 3C0 1.34315 1.34315 0 3 0H59V20H3C1.34315 20 0 18.6569 0 17V3Z"
     fill="#0D143C"
     id="path2" />
  <g
     filter="url(#filter0_d)"
     id="g16">
    <path
       d="M22.7686 7.66699H21.6138V11.0884C21.6138 12.0283 21.1035 12.5977 20.1689 12.5977C19.3203 12.5977 18.939 12.1357 18.939 11.1689V7.66699H17.7842V11.4536C17.7842 12.8232 18.5039 13.6128 19.7983 13.6128C20.6846 13.6128 21.2808 13.2368 21.5654 12.5762H21.6567V13.5H22.7686V7.66699Z"
       fill="white"
       id="path4" />
    <path
       d="M27.479 7.56494C26.6841 7.56494 25.9966 7.96777 25.6421 8.63379H25.5562V7.66699H24.4443V15.4443H25.5991V12.6191H25.6904C25.9966 13.2368 26.6572 13.5967 27.4897 13.5967C28.9668 13.5967 29.9067 12.4258 29.9067 10.5835C29.9067 8.73047 28.9668 7.56494 27.479 7.56494ZM27.1514 12.6084C26.1846 12.6084 25.5776 11.8296 25.5776 10.5835C25.5776 9.33203 26.1846 8.55322 27.1567 8.55322C28.1343 8.55322 28.7197 9.31592 28.7197 10.5835C28.7197 11.8511 28.1343 12.6084 27.1514 12.6084Z"
       fill="white"
       id="path6" />
    <path
       d="M31.7061 6.19531V7.68311H30.7769V8.60693H31.7061V11.9639C31.7061 13.0864 32.2163 13.5376 33.5 13.5376C33.7256 13.5376 33.9404 13.5107 34.1284 13.4785V12.5601C33.9673 12.5762 33.8652 12.5869 33.688 12.5869C33.1133 12.5869 32.8608 12.313 32.8608 11.6846V8.60693H34.1284V7.68311H32.8608V6.19531H31.7061Z"
       fill="white"
       id="path8" />
    <path
       d="M36.0835 6.625C36.4863 6.625 36.814 6.29736 36.814 5.8999C36.814 5.49707 36.4863 5.16943 36.0835 5.16943C35.6807 5.16943 35.353 5.49707 35.353 5.8999C35.353 6.29736 35.6807 6.625 36.0835 6.625ZM35.5088 13.5H36.6582V7.66699H35.5088V13.5Z"
       fill="white"
       id="path10" />
    <path
       d="M38.3555 13.5H39.5103V9.91748C39.5103 9.15479 40.042 8.55859 40.7456 8.55859C41.4331 8.55859 41.8735 8.97217 41.8735 9.63818V13.5H43.0068V9.81006C43.0068 9.10645 43.4956 8.55859 44.2422 8.55859C44.9995 8.55859 45.3755 8.95068 45.3755 9.75635V13.5H46.5303V9.47705C46.5303 8.26318 45.8428 7.5542 44.6611 7.5542C43.8501 7.5542 43.1787 7.96777 42.8833 8.59619H42.792C42.5342 7.96777 41.981 7.5542 41.1807 7.5542C40.4019 7.5542 39.811 7.94092 39.5532 8.59619H39.4673V7.66699H38.3555V13.5Z"
       fill="white"
       id="path12" />
    <path
       d="M51.9873 11.937C51.7725 12.4097 51.2944 12.6675 50.5962 12.6675C49.6724 12.6675 49.0762 12.0015 49.0386 10.9434V10.8896H53.1689V10.4922C53.1689 8.66602 52.186 7.5542 50.5586 7.5542C48.9097 7.5542 47.8623 8.74121 47.8623 10.5942C47.8623 12.458 48.8882 13.6128 50.564 13.6128C51.9014 13.6128 52.8467 12.9683 53.0991 11.937H51.9873ZM50.5532 8.49414C51.4072 8.49414 51.9658 9.11182 51.9927 10.0571H49.0386C49.103 9.11719 49.6992 8.49414 50.5532 8.49414Z"
       fill="white"
       id="path14" />
  </g>
  <g
     filter="url(#filter1_d)"
     id="g22">
    <path
       d="M9.57314 10.0212V5.36611C9.57314 4.51877 8.50896 4.14094 7.97464 4.79858L4.19237 9.45368C3.71448 10.0418 4.13304 10.9212 4.89087 10.9212H8.67314C9.1702 10.9212 9.57314 10.5183 9.57314 10.0212Z"
       fill="url(#paint0_linear)"
       id="path18" />
    <path
       d="M13.2442 9.90991H9.46192C8.96486 9.90991 8.56192 10.3129 8.56192 10.8099V15.465C8.56192 16.3124 9.6261 16.6902 10.1604 16.0325L13.9427 11.3774C14.4206 10.7893 14.002 9.90991 13.2442 9.90991Z"
       fill="white"
       id="path20" />
  </g>
  <path
     d="M59 0H82C83.6569 0 85 1.34315 85 3V17C85 18.6569 83.6569 20 82 20H59V0Z"
     fill="url(#paint1_linear)"
     id="path24" />
  <g
     filter="url(#filter2_d)"
     id="g30">
    <text
       xml:space="preserve"
       style="font-style:normal;font-weight:normal;font-size:40px;line-height:1.25;font-family:sans-serif;letter-spacing:0px;word-spacing:0px;fill:#000000;fill-opacity:1;stroke:none"
       x="-42.5"
       y="-52.669754"
       id="text3794"><tspan
         sodipodi:role="line"
         id="tspan3792"
         x="-42.5"
         y="-52.669754">n</tspan></text>
  </g>
  <defs
     id="defs81">
    <filter
       id="filter0_d"
       x="17.7842"
       y="5.16943"
       width="35.3848"
       height="11.4749"
       filterUnits="userSpaceOnUse"
       color-interpolation-filters="sRGB">
      <feFlood
         flood-opacity="0"
         result="BackgroundImageFix"
         id="feFlood32" />
      <feColorMatrix
         in="SourceAlpha"
         type="matrix"
         values="0 0 0 0 0 0 0 0 0 0 0 0 0 0 0 0 0 0 127 0"
         id="feColorMatrix34" />
      <feOffset
         dy="1.2"
         id="feOffset36" />
      <feColorMatrix
         type="matrix"
         values="0 0 0 0 0 0 0 0 0 0 0 0 0 0 0 0 0 0 0.25 0"
         id="feColorMatrix38" />
      <feBlend
         mode="normal"
         in2="BackgroundImageFix"
         result="effect1_dropShadow"
         id="feBlend40" />
      <feBlend
         mode="normal"
         in="SourceGraphic"
         in2="effect1_dropShadow"
         result="shape"
         id="feBlend42" />
    </filter>
    <filter
       id="filter1_d"
       x="3.98917"
       y="4.46432"
       width="10.1567"
       height="13.1025"
       filterUnits="userSpaceOnUse"
       color-interpolation-filters="sRGB">
      <feFlood
         flood-opacity="0"
         result="BackgroundImageFix"
         id="feFlood45" />
      <feColorMatrix
         in="SourceAlpha"
         type="matrix"
         values="0 0 0 0 0 0 0 0 0 0 0 0 0 0 0 0 0 0 127 0"
         id="feColorMatrix47" />
      <feOffset
         dy="1.2"
         id="feOffset49" />
      <feColorMatrix
         type="matrix"
         values="0 0 0 0 0 0 0 0 0 0 0 0 0 0 0 0 0 0 0.25 0"
         id="feColorMatrix51" />
      <feBlend
         mode="normal"
         in2="BackgroundImageFix"
         result="effect1_dropShadow"
         id="feBlend53" />
      <feBlend
         mode="normal"
         in="SourceGraphic"
         in2="effect1_dropShadow"
         result="shape"
         id="feBlend55" />
    </filter>
    <filter
       id="filter2_d"
       x="65.7842"
       y="7.56494"
       width="12.1226"
       height="9.07939"
       filterUnits="userSpaceOnUse"
       color-interpolation-filters="sRGB">
      <feFlood
         flood-opacity="0"
         result="BackgroundImageFix"
         id="feFlood58" />
      <feColorMatrix
         in="SourceAlpha"
         type="matrix"
         values="0 0 0 0 0 0 0 0 0 0 0 0 0 0 0 0 0 0 127 0"
         id="feColorMatrix60" />
      <feOffset
         dy="1.2"
         id="feOffset62" />
      <feColorMatrix
         type="matrix"
         values="0 0 0 0 0 0 0 0 0 0 0 0 0 0 0 0 0 0 0.25 0"
         id="feColorMatrix64" />
      <feBlend
         mode="normal"
         in2="BackgroundImageFix"
         result="effect1_dropShadow"
         id="feBlend66" />
      <feBlend
         mode="normal"
         in="SourceGraphic"
         in2="effect1_dropShadow"
         result="shape"
         id="feBlend68" />
    </filter>
    <linearGradient
       id="paint0_linear"
       x1="6.03376"
       y1="4.60087"
       x2="10.3316"
       y2="12.6909"
       gradientUnits="userSpaceOnUse">
      <stop
         stop-color="#BCBECD"
         id="stop71" />
      <stop
         offset="1"
         stop-color="#BCBECD"
         stop-opacity="0"
         id="stop73" />
    </linearGradient>
    <linearGradient
       id="paint1_linear"
       x1="72"
       y1="0"
       x2="72"
       y2="20"
       gradientUnits="userSpaceOnUse">
      <stop
         stop-color="#88C25C"
         id="stop76"
         style="stop-color:#8f918d;stop-opacity:1" />
      <stop
         offset="1"
         stop-color="#77B14C"
         id="stop78"
         style="stop-color:#7f7f7f;stop-opacity:1" />
    </linearGradient>
  </defs>
  <g
     id="g4631"
     transform="matrix(0.73072769,0,0,0.73072769,18.967615,2.1378531)">
    <text
       xml:space="preserve"
       style="font-style:normal;font-variant:normal;font-weight:normal;font-stretch:normal;font-size:13.33333302px;line-height:1.25;font-family:sans-serif;-inkscape-font-specification:'sans-serif, Normal';font-variant-ligatures:normal;font-variant-caps:normal;font-variant-numeric:normal;font-feature-settings:normal;text-align:start;letter-spacing:0px;word-spacing:0px;writing-mode:lr-tb;text-anchor:start;fill:#000000;fill-opacity:0.22374429;stroke:none"
       x="61.651237"
       y="16.196571"
       id="text4625"><tspan
         sodipodi:role="line"
         id="tspan4623"
         x="61.651237"
         y="16.196571"
         style="font-style:normal;font-variant:normal;font-weight:normal;font-stretch:normal;font-size:13.33333302px;font-family:sans-serif;-inkscape-font-specification:'sans-serif, Normal';font-variant-ligatures:normal;font-variant-caps:normal;font-variant-numeric:normal;font-feature-settings:normal;text-align:start;writing-mode:lr-tb;text-anchor:start;fill:#000000;fill-opacity:0.22374429">n/a</tspan></text>
    <text
       id="text4603"
       y="14.753087"
       x="61.651237"
       style="font-style:normal;font-variant:normal;font-weight:normal;font-stretch:normal;font-size:13.33333302px;line-height:1.25;font-family:sans-serif;-inkscape-font-specification:'sans-serif, Normal';font-variant-ligatures:normal;font-variant-caps:normal;font-variant-numeric:normal;font-feature-settings:normal;text-align:start;letter-spacing:0px;word-spacing:0px;writing-mode:lr-tb;text-anchor:start;fill:#000000;fill-opacity:1;stroke:none"
       xml:space="preserve"><tspan
         style="font-style:normal;font-variant:normal;font-weight:normal;font-stretch:normal;font-size:13.33333302px;font-family:sans-serif;-inkscape-font-specification:'sans-serif, Normal';font-variant-ligatures:normal;font-variant-caps:normal;font-variant-numeric:normal;font-feature-settings:normal;text-align:start;writing-mode:lr-tb;text-anchor:start;fill:#ffffff;fill-opacity:1"
         y="14.753087"
         x="61.651237"
         id="tspan4601"
         sodipodi:role="line">n/a</tspan></text>
  </g>
</svg>
